<?xml version="1.0" encoding="UTF-8" standalone="no"?>
<!-- Created with Inkscape (http://www.inkscape.org/) -->

<svg
   xmlns:dc="http://purl.org/dc/elements/1.1/"
   xmlns:cc="http://creativecommons.org/ns#"
   xmlns:rdf="http://www.w3.org/1999/02/22-rdf-syntax-ns#"
   xmlns:svg="http://www.w3.org/2000/svg"
   xmlns="http://www.w3.org/2000/svg"
   xmlns:sodipodi="http://sodipodi.sourceforge.net/DTD/sodipodi-0.dtd"
   xmlns:inkscape="http://www.inkscape.org/namespaces/inkscape"
   width="100.10705"
   height="92.479408"
   viewBox="0 0 26.486656 24.468509"
   version="1.1"
   id="svg12879"
   inkscape:version="0.92.0 r15299"
   sodipodi:docname="gulf.svg">
  <defs
     id="defs12873">
    <clipPath
       id="clipPath12498"
       clipPathUnits="userSpaceOnUse">
      <path
         inkscape:connector-curvature="0"
         id="path12496"
         d="M 0,0 H 595.275 V 841.89 H 0 Z" />
    </clipPath>
  </defs>
  <sodipodi:namedview
     id="base"
     pagecolor="#ffffff"
     bordercolor="#666666"
     borderopacity="1.0"
     inkscape:pageopacity="0.0"
     inkscape:pageshadow="2"
     inkscape:zoom="5.8264477"
     inkscape:cx="49.553528"
     inkscape:cy="45.739705"
     inkscape:document-units="mm"
     inkscape:current-layer="layer1"
     showgrid="false"
     fit-margin-top="0"
     fit-margin-left="0"
     fit-margin-right="0"
     fit-margin-bottom="0"
     units="px"
     inkscape:window-width="1280"
     inkscape:window-height="744"
     inkscape:window-x="-4"
     inkscape:window-y="-4"
     inkscape:window-maximized="1" />
  <metadata
     id="metadata12876">
    <rdf:RDF>
      <cc:Work
         rdf:about="">
        <dc:format>image/svg+xml</dc:format>
        <dc:type
           rdf:resource="http://purl.org/dc/dcmitype/StillImage" />
        <dc:title></dc:title>
      </cc:Work>
    </rdf:RDF>
  </metadata>
  <g
     inkscape:label="Layer 1"
     inkscape:groupmode="layer"
     id="layer1"
     transform="translate(17.319526,-167.21923)">
    <g
       id="g13034">
      <path
         d="m -4.0762196,167.35196 c -5.074708,-0.0423 -9.3510804,2.97956 -11.1587144,7.44008 -0.321733,0.0734 -1.062214,0.53728 -1.3716,1.20721 -0.735188,1.5561 -0.789163,5.39397 -0.06526,6.78462 0.30727,0.70168 0.985309,1.09432 1.422753,1.26365 1.79952,4.57376 6.0850644,7.55086 11.1728254,7.50746 5.087761,0.0434 9.372953,-2.9337 11.172825,-7.50746 0.437444,-0.16933 1.115483,-0.56197 1.422753,-1.26365 0.723899,-1.39065 0.669924,-5.22852 -0.06491,-6.78462 -0.310091,-0.66993 -1.050219,-1.13383 -1.371952,-1.20721 -1.807634,-4.46052 -6.08400598,-7.48241 -11.158714,-7.44008 m 0,23.58108 c -4.908197,0.0409 -9.0043004,-2.92524 -10.6595334,-7.29262 -0.314325,-0.12524 -0.849136,-0.31962 -1.230489,-0.93381 -0.815975,-1.31798 -0.713317,-5.13679 0,-6.53062 0.390172,-0.64629 0.900642,-0.83749 1.226608,-0.92181 1.666523,-4.3434 5.7717974,-7.32472 10.6634144,-7.2838 4.89161702,-0.0409 8.996891,2.9404 10.663414,7.2838 0.325614,0.0843 0.827616,0.27129 1.213555,0.92604 0.832203,1.38078 0.881592,5.15056 -0.0127,6.47559 -0.381,0.63289 -0.890764,0.80998 -1.204736,0.91899 -1.655586,4.36774 -5.75133598,7.39916 -10.659533,7.35824"
         style="fill:#ffffff;fill-opacity:1;fill-rule:evenodd;stroke:none;stroke-width:0.35277778"
         id="path12502"
         inkscape:connector-curvature="0" />
      <path
         d="m -4.0747726,190.33427 c -4.747683,0.0399 -8.7347784,-2.90301 -10.2369054,-7.1822 -0.541161,-0.12383 -0.789164,-0.22684 -1.032581,-0.59514 -0.833261,-1.25836 -0.833261,-4.95194 0,-6.2103 0.243417,-0.3683 0.49142,-0.47131 1.032581,-0.59513 1.502127,-4.2792 5.4892224,-7.22172 10.2369054,-7.18221 4.74768302,-0.0395 8.73513,2.90301 10.237258,7.18221 0.540808,0.12382 0.788811,0.22683 1.032581,0.59513 0.833261,1.25836 0.833261,4.9523 0,6.2103 -0.24377,0.3683 -0.491773,0.47131 -1.032581,0.59514 -1.502128,4.27919 -5.48957498,7.22206 -10.237258,7.1822"
         style="fill:#ffffff;fill-opacity:1;fill-rule:evenodd;stroke:none;stroke-width:0.35277778"
         id="path12506"
         inkscape:connector-curvature="0" />
      <path
         d="m -8.7034286,178.08646 -0.0053,-1.17828 c -6.7920304,-2.95945 -8.0228724,6.75922 -1.5716254,5.23628 l 3.53e-4,0.18839 h 1.9699114 v -3.30412 l -2.8070534,0.007 v 1.11937 l 0.827617,-3.5e-4 v 0.89005 c -3.520016,1.13101 -2.882194,-5.33717 1.5860894,-2.95839"
         style="fill:#002876;fill-opacity:1;fill-rule:evenodd;stroke:none;stroke-width:0.35277778"
         id="path12510"
         inkscape:connector-curvature="0" />
      <path
         d="m -8.7034286,178.08646 -0.0053,-1.17828 c -6.7920304,-2.95945 -8.0228724,6.75922 -1.5716254,5.23628 l 3.53e-4,0.18839 h 1.9699114 v -3.30412 l -2.8070534,0.007 v 1.11937 l 0.827617,-3.5e-4 v 0.89005 c -3.520016,1.13101 -2.882194,-5.33717 1.5860894,-2.95839 z"
         style="fill:none;stroke:#2e3192;stroke-width:0.0762;stroke-linecap:butt;stroke-linejoin:miter;stroke-miterlimit:2.61299992;stroke-dasharray:none;stroke-opacity:1"
         id="path12514"
         inkscape:connector-curvature="0" />
      <path
         d="m -6.9252526,179.03155 1.850672,0.002 v 1.77589 c -0.06421,0.68544 1.369836,0.68897 1.544814,0.12241 v -1.8983 h 1.858433 v 3.29424 h -1.857022 l 0.0011,-0.25223 c -2.220736,0.65122 -3.294591,0.0907 -3.396544,-0.86607 z"
         style="fill:#002876;fill-opacity:1;fill-rule:evenodd;stroke:#2e3192;stroke-width:0.0762;stroke-linecap:butt;stroke-linejoin:miter;stroke-miterlimit:2.61299992;stroke-dasharray:none;stroke-opacity:1"
         id="path12518"
         inkscape:connector-curvature="0" />
      <path
         inkscape:connector-curvature="0"
         id="path12520"
         style="fill:#002876;fill-opacity:1;fill-rule:evenodd;stroke:none;stroke-width:0.35277778"
         d="M -0.52163058,177.04739 H 1.3763134 v 5.27368 h -1.89794398 z" />
      <path
         d="M -0.52152458,177.04736 H 1.3764194 v 5.27367 h -1.89794398 z"
         style="fill:none;stroke:#2e3192;stroke-width:0.0762;stroke-linecap:butt;stroke-linejoin:miter;stroke-miterlimit:2.61299992;stroke-dasharray:none;stroke-opacity:1"
         id="path12524"
         inkscape:connector-curvature="0" />
      <path
         d="m 6.1769494,178.29968 -0.0095,-0.97367 c -1.712736,-0.65052 -2.9337,-0.60148 -2.977444,0.46073 l 0.0018,1.24636 -0.900289,0.003 -0.0063,1.20791 0.891822,-0.006 -0.0064,2.10467 h 1.882069 l 0.006,-2.13219 0.894292,0.01 v -1.18145 l -0.886178,-0.0123 v -0.70167 c 0.0702,-0.37747 0.603603,-0.25153 1.110192,-0.025"
         style="fill:#002876;fill-opacity:1;fill-rule:evenodd;stroke:none;stroke-width:0.35277778"
         id="path12528"
         inkscape:connector-curvature="0" />
      <path
         d="m 6.1769494,178.29968 -0.0095,-0.97367 c -1.712736,-0.65052 -2.9337,-0.60148 -2.977444,0.46073 l 0.0018,1.24636 -0.900289,0.003 -0.0063,1.20791 0.891822,-0.006 -0.0064,2.10467 h 1.882069 l 0.006,-2.13219 0.894292,0.01 v -1.18145 l -0.886178,-0.0123 v -0.70167 c 0.0702,-0.37747 0.603603,-0.25153 1.110192,-0.025 z"
         style="fill:none;stroke:#2e3192;stroke-width:0.0762;stroke-linecap:butt;stroke-linejoin:miter;stroke-miterlimit:2.61299992;stroke-dasharray:none;stroke-opacity:1"
         id="path12532"
         inkscape:connector-curvature="0" />
      <path
         d="m -4.0747726,190.33427 c -4.747683,0.0399 -8.7347784,-2.90301 -10.2369054,-7.1822 -0.541161,-0.12383 -0.789164,-0.22684 -1.032581,-0.59514 -0.833261,-1.25836 -0.833261,-4.95194 0,-6.2103 0.243417,-0.3683 0.49142,-0.47131 1.032581,-0.59513 1.502127,-4.2792 5.4892224,-7.22172 10.2369054,-7.18221 4.74768302,-0.0395 8.73513,2.90301 10.237258,7.18221 0.540808,0.12382 0.788811,0.22683 1.032581,0.59513 0.833261,1.25836 0.833261,4.9523 0,6.2103 -0.24377,0.3683 -0.491773,0.47131 -1.032581,0.59514 -1.502128,4.27919 -5.48957498,7.22206 -10.237258,7.1822 M -15.951742,176.17941 c 0.373591,-0.58843 0.613128,-0.72072 1.220258,-0.94191 1.665111,-4.33846 5.7703864,-7.29545 10.6567114,-7.25452 4.88632502,-0.0409 8.991953,2.91606 10.656711,7.25452 0.60713,0.22119 0.846667,0.35348 1.220258,0.94191 0.868186,1.44322 0.857956,4.98722 0,6.43079 -0.373591,0.60149 -0.613128,0.7366 -1.220258,0.96273 -1.664758,4.43301 -5.77038598,7.39246 -10.656711,7.35083 -4.886325,0.0416 -8.9916004,-2.85609 -10.6567114,-7.28909 -0.60713,-0.22613 -0.908403,-0.42298 -1.281994,-1.02447 -0.74295,-1.31798 -0.695325,-4.95617 0.06174,-6.43079"
         style="fill:#002876;fill-opacity:1;fill-rule:evenodd;stroke:none;stroke-width:0.35277778"
         id="path12536"
         inkscape:connector-curvature="0" />
      <path
         d="m -4.0822516,169.21636 c 4.24144702,0 7.888816,2.65501 9.402939,6.40574 -6.25651398,-0.8502 -12.5603,-0.84208 -18.8157554,0.025 1.507772,-3.76414 5.1621974,-6.43079 9.4128164,-6.43079 m 9.490428,13.9065 c -1.457325,3.86891 -5.16501998,6.63011 -9.490428,6.63011 -4.334933,0 -8.0493304,-2.77319 -9.4996004,-6.65516 6.3129584,0.88265 12.67565842,0.89112 18.9900284,0.0251"
         style="fill:#ff6319;fill-opacity:1;fill-rule:evenodd;stroke:none;stroke-width:0.35277778"
         id="path12540"
         inkscape:connector-curvature="0" />
    </g>
  </g>
</svg>
