<?xml version="1.0" encoding="utf-8"?>
<svg xmlns="http://www.w3.org/2000/svg" width="150px" height="139px">
<path fill="#FFCD00" d="M75.01,132.31c-1.18,0-2.3-0.36-3.24-1.04l-3.62-2.65H33.72l-3.18-25.32L7.61,86.61C6.96,82.87,6.63,79,6.63,75.07C6.63,37.36,37.3,6.7,75.01,6.7c37.7,0,68.37,30.67,68.37,68.37c0,3.85-0.33,7.73-0.98,11.55l-22.92,16.69l-3.19,25.32H81.87l-3.64,2.68C77.34,131.95,76.18,132.31,75.01,132.31z"/>
<path fill="#DA291C" d="M68.47,135.84c1.92,1.39,4.2,2.1,6.53,2.1c2.33,0,4.63-0.72,6.54-2.1l2.17-1.58h37.53l3.51-27.84l22.76-16.57C148.5,85,149,80.04,149,75.06c0-40.86-33.15-74-74-74S1,34.2,1,75.06C1,80.04,1.48,85,2.5,89.85l22.76,16.57l3.49,27.84h37.56L68.47,135.84z M67.49,121.31H40.18l-2.74-22.06L14.94,82.9c-0.66-2.57-1-5.18-1-7.84c0-4.42,0.93-8.79,2.75-12.82l39.81,40.23L17.8,54.72c1.52-6.2,4.89-11.79,9.67-16.02l34.7,59.86L31.41,33.03c3.97-5.31,9.51-9.2,15.85-11.15l21.21,74.33l-15.5-77.4c4.74-2.67,10.02-4.06,15.45-4.06c1.15,0,2.29,0.05,3.42,0.17L75,95.42l3.15-80.49c1.15-0.12,2.28-0.17,3.45-0.17c5.39,0,10.72,1.39,15.44,4.06l-15.5,77.4l21.23-74.33c6.31,1.95,11.85,5.85,15.83,11.15L87.86,98.56l34.7-59.86c4.75,4.23,8.13,9.82,9.67,16.02l-38.7,47.76l39.81-40.23c1.8,4.03,2.71,8.4,2.71,12.82c0,2.66-0.32,5.27-1,7.84l-22.46,16.35l-2.76,22.06H82.52l-4.02,2.93c-1.03,0.73-2.25,1.16-3.5,1.16c-1.25,0-2.47-0.42-3.48-1.16L67.49,121.31z"/>
</svg>